<svg xmlns="http://www.w3.org/2000/svg" viewBox="0 0 150 220">

    <!-- 
        Digito: 1, Leds: 3, 6
        Digito: 2, Leds: 1, 3, 4, 5, 7
        Digito: 3, Leds: 1, 3, 4, 6, 7
        Digito: 4, Leds: 2, 3, 4, 6
        Digito: 5, Leds: 1, 2, 4, 6, 7
        Digito: 6, Leds: 1, 2, 4, 5, 6, 7
        Digito: 7, Leds: 1, 3, 6
        Digito: 8, Leds: todos
        Digito: 9, Leds: 1, 2, 3, 4, 6, 7
     -->

    <rect width="100%" height="100%" />
    <g class="digit">
        <!-- 1 -->
        <polygon class="digit-led" points="30.07,17 37.14,24.07 107.14,24.07 114.21,17 107.14,9.93 37.14,9.93" fill="#222" />
        <!-- 2 -->
        <polygon class="digit-led" points="20,27.07 27.07,20 34.14,27.07 34.14,97.07 27.07,104.14 20,97.07" fill="#222" />
        <!-- 3 -->
        <polygon class="digit-led" points="110.14,27.07 117.21,20 124.21,27.07 124.21,97.07 117.21,104.14 110.14,97.07" fill="#222" />
        <!-- 4 -->
        <polygon class="digit-led" points="30.07,107.14 37.14,114.21 107.14,114.21 114.21,107.14 107.14,100.07 37.14,100.07"
            fill="#222" />
        <!-- 5 -->
        <polygon class="digit-led" points="20,117.21 27.07,110.14 34.14,117.21 34.14,187.21 27.07,194.28 20,187.21" fill="#222" />
        <!-- 6 -->
        <polygon class="digit-led" points="110.14,117.21 117.21,110.14 124.21,117.21 124.21,187.21 117.21,194.28 110.14,187.21"
            fill="#222" />
        <!-- 7 -->
        <polygon class="digit-led" points="30.07,197.28 37.14,204.35 107.14,204.35 114.21,197.28 107.14,190.21 37.14,190.21"
            fill="#222" />
    </g>
</svg>